<svg xmlns="http://www.w3.org/2000/svg" width="33" height="32" fill="none"><path fill="#22BCFF" d="M.044 6.72c0-2.352 0-3.527.456-4.426A4.186 4.186 0 012.323.46C3.213 0 4.383 0 6.722 0h18.604c2.341 0 3.508 0 4.402.459a4.186 4.186 0 011.823 1.835c.453.9.453 2.074.453 4.427v18.554c0 2.353 0 3.532-.453 4.43a4.179 4.179 0 01-1.823 1.836c-.894.459-2.06.459-4.402.459h-18.6c-2.339 0-3.51 0-4.4-.459a4.179 4.179 0 01-1.823-1.835c-.456-.9-.456-2.078-.456-4.43L.044 6.72z"/><path fill="#fff" d="M19.694 8.057V4.056h-2.188v4h-2.188v-4H13.13v4h-2.19v2.034c0 2.815 1.218 5.954 4.377 6.541v7.363c0 .701 0 1.226-.215 1.443-.157.158-.624.422-1.984.422-1.065 0-1.747-.173-1.98-.488-.234-.316-.198-.797-.198-1.377v-3.982c0-1.924-.339-3.972-4.376-3.972H0v2.202h6.568c2.222 0 2.218.415 2.218 1.777v3.972c0 .81 0 1.868.627 2.705.686.925 1.871 1.354 3.731 1.354 1.67 0 2.783-.334 3.494-1.057.857-.863.886-2.103.886-3.002v-7.375c3.151-.583 4.377-3.722 4.377-6.537V8.057h-2.207z"/></svg>